<svg width="200" height="57" viewBox="0 0 200 57" fill="none" xmlns="http://www.w3.org/2000/svg">
<path d="M99.8063 9.4937C98.5044 9.87484 97.2026 10.256 95.9104 10.6371C94.8893 10.9535 93.8827 11.3079 92.8615 11.6281C92.692 11.6529 92.5181 11.6529 92.3485 11.6281C92.4792 11.5595 92.605 11.4833 92.7405 11.4223C92.8343 11.3881 92.9314 11.3601 93.0309 11.3384C94.2021 10.9916 95.3781 10.6562 96.5444 10.3017C97.7108 9.94726 98.8335 9.58517 99.9853 9.23452C100.823 8.97915 101.674 8.74284 102.516 8.47223C102.608 8.44555 102.666 8.35408 102.739 8.29309C102.629 8.27479 102.517 8.26584 102.405 8.26641C102.308 8.26641 102.216 8.3274 102.12 8.33883C101.8 8.37313 101.495 8.59801 101.152 8.37695C101.108 8.35027 100.948 8.44174 100.837 8.47223C100.527 8.56371 100.305 8.92579 99.8692 8.65899C99.845 8.65899 99.7385 8.72379 99.6659 8.74666C99.3693 8.88376 99.0397 8.97073 98.698 9.00202C98.5911 8.99333 98.4831 9.00131 98.3801 9.02551C98.2772 9.0497 98.1813 9.08964 98.0979 9.14304C97.9382 9.2269 97.8463 9.52419 97.614 9.21546C97.614 9.21546 97.4059 9.21546 97.4059 9.23833C97.4059 9.58517 97.0623 9.40603 96.8735 9.44796L94.7248 9.95107C94.2069 10.0692 93.7568 10.3322 93.1616 10.3055C92.9874 10.3055 92.7696 10.5266 92.5082 10.3589C92.5082 10.3589 92.4163 10.3818 92.4115 10.4008C92.2711 10.782 91.8452 10.6486 91.5258 10.6981C91.4581 10.6981 91.3419 10.6981 91.3226 10.7248C91.1144 10.984 90.8386 10.9535 90.5047 10.9154C90.4127 10.9154 90.2579 10.9154 90.224 10.9687C89.9723 11.3499 89.3916 11.1479 89.048 11.3918C88.8305 11.4928 88.5878 11.5552 88.3366 11.5747C88.0801 11.6281 87.8139 11.651 87.5622 11.7158C86.2233 12.0639 84.886 12.4234 83.5502 12.7944C82.5823 13.0612 81.566 13.3242 80.5836 13.6101C79.6012 13.8959 78.5994 14.2275 77.6024 14.5134C76.0006 14.9746 74.3842 15.4052 72.7629 15.8702C70.9529 16.4038 69.1526 16.9527 67.3475 17.5053C65.9488 17.936 64.5599 18.382 63.1661 18.8203C62.5757 19.0032 61.9804 19.2014 61.39 19.3615C61.2941 19.3767 61.1954 19.3767 61.0996 19.3615C61.1144 19.3028 61.1405 19.2463 61.177 19.1938C61.7578 18.5344 62.3192 17.8712 62.8322 17.1738C63.4952 16.2704 64.284 15.4205 64.9906 14.54C65.8004 13.5567 66.607 12.5721 67.4104 11.5862C67.6959 11.2393 67.9669 10.8925 68.2379 10.5418C68.3638 10.378 68.4702 10.2102 68.5961 10.0464C68.9058 9.64234 69.1865 9.21546 69.564 8.83813C70.0479 8.32359 70.6093 7.84716 71.1271 7.34786C71.4804 7.01245 71.8144 6.66942 72.1483 6.31877C72.1967 6.26922 72.1822 6.17774 72.1967 6.10152C72.1212 6.0939 72.0447 6.0939 71.9692 6.10152C71.645 6.18156 71.3207 6.25778 71.0013 6.35688C70.5672 6.46127 70.1524 6.60991 69.7672 6.79901C69.4862 6.94677 69.1936 7.08043 68.8913 7.19921C68.1944 7.52699 67.391 7.72138 66.7425 8.0949C65.5859 8.7619 64.5163 9.528 63.3984 10.2407C62.8273 10.6219 62.3143 11.003 61.69 11.3499C61.0747 11.7438 60.4927 12.1691 59.9478 12.6229C59.1347 13.187 58.2975 13.7282 57.4699 14.2809C56.202 15.127 54.9356 15.9757 53.6709 16.8269C52.8482 17.3796 52.0545 17.9703 51.2173 18.4963C50.109 19.2052 48.962 19.8799 47.8296 20.5774C47.152 20.9966 46.5084 21.4426 45.8308 21.8542C45.0372 22.3383 44.2241 22.7918 43.4111 23.2682C42.2109 23.9924 40.9913 24.709 39.825 25.4522C38.6586 26.1954 37.26 26.7481 36.4373 27.7962C36.4051 27.8393 36.3642 27.8779 36.3163 27.9106C35.5811 28.3359 34.7771 28.682 33.9256 28.9397C32.2769 29.4936 30.625 30.059 28.9699 30.6358C27.3147 31.2126 25.6661 31.797 24.0239 32.389C23.1721 32.6978 22.3252 33.0217 21.4783 33.3457C20.8878 33.5744 20.3022 33.8107 19.7167 34.047L17.6405 34.897C17.5727 34.9236 17.4566 34.9694 17.4517 35.0075C17.4517 35.3315 17.2194 35.2438 16.9678 35.2057C16.7161 35.1676 16.1838 35.4229 16.2419 35.5449C16.4742 36.0213 15.8886 36.0099 15.6369 36.1509C15.2837 36.3087 14.9166 36.4462 14.5383 36.5626C14.4416 36.6045 14.398 36.7264 14.3351 36.8065C14.4561 36.8065 14.6255 36.8294 14.6932 36.7798C14.8229 36.6885 14.9784 36.623 15.1467 36.5885C15.3151 36.554 15.4914 36.5517 15.6611 36.5816C15.7323 36.5961 15.7995 36.6207 15.8595 36.654C15.812 36.6993 15.7566 36.739 15.695 36.7722C14.8771 37.0733 14.035 37.3363 13.2462 37.6793C12.7622 37.8966 12.0605 37.9004 11.7943 38.3997C11.7943 38.4225 11.6733 38.4416 11.6588 38.4263C11.4362 38.2472 11.2765 38.4263 11.1071 38.4911C10.7877 38.5979 10.4828 38.7351 10.1682 38.8723C9.85366 39.0095 9.53909 39.1048 9.20033 39.2153C8.86156 39.3258 8.46472 39.383 8.23242 39.5965C8.00012 39.8099 7.74846 39.7604 7.49197 39.8595C7.3855 39.9052 7.34678 40.0348 7.25483 40.1148C7.17206 40.179 7.08127 40.2365 6.98381 40.2863C6.7612 39.9509 6.56277 40.2482 6.37403 40.313C6.07882 40.4197 5.80781 40.5684 5.52227 40.6942L5.24642 40.7971C5.34125 40.8202 5.43223 40.8522 5.51743 40.8924C5.57909 40.9383 5.62989 40.9925 5.66746 41.0524L4.96572 41.304C4.82054 41.0067 4.71891 41.2354 4.60276 41.304C4.5262 41.3754 4.42933 41.4316 4.32002 41.468C4.2107 41.5045 4.09203 41.5201 3.97362 41.5136C3.89135 41.5136 3.37351 41.384 3.65421 41.7652C3.67841 41.7957 3.62517 41.9024 3.57678 41.9214C3.3218 42.0657 3.02916 42.1634 2.72018 42.2073C2.60409 42.1923 2.48504 42.2111 2.38528 42.2602C2.28552 42.3093 2.21189 42.3853 2.17815 42.4741C2.14427 42.5275 2.04264 42.5618 1.97005 42.5961C1.40382 42.8476 0.837593 43.0954 0.276206 43.3584C0.227811 43.3584 0.227811 43.4613 0.203613 43.5146C0.256848 43.5146 0.319762 43.5375 0.363318 43.5146C0.720717 43.3493 1.12124 43.2502 1.53449 43.225C1.7631 43.223 1.98877 43.1841 2.1975 43.1106C2.71534 42.9353 3.21865 42.7295 3.72196 42.5427C4.22527 42.3559 4.71407 42.1234 5.22706 41.9443C6.29176 41.5632 7.38066 41.2506 8.44536 40.8733C10.5844 40.111 12.7138 39.3182 14.8529 38.5521C16.1548 38.0871 17.4614 37.6259 18.7826 37.1914C20.1038 36.7569 21.3379 36.4025 22.6204 36.0099L27.3051 34.5654C28.5827 34.1842 29.8603 33.8031 31.1283 33.3762C32.5318 32.9226 33.911 32.4271 35.3193 31.985C36.4566 31.6267 37.6326 31.3409 38.7699 30.9826C40.3831 30.4744 41.9963 29.9459 43.6095 29.397C45.3227 28.8101 47.0262 28.1926 48.7249 27.5714C49.4073 27.3236 50.0654 27.0263 50.7285 26.7557L50.9801 26.6566C51.0113 26.7394 51.0244 26.8257 51.0188 26.912C50.979 27.0207 50.9204 27.1246 50.8446 27.2207C50.5107 27.7391 50.1622 28.2498 49.838 28.7682C49.2476 29.7286 48.6765 30.6739 48.0764 31.6496C47.5924 32.4119 47.0552 33.1742 46.5713 33.9784C46.0873 34.7826 45.5695 35.6745 45.0662 36.5244C44.8678 36.8637 44.6887 37.2105 44.4612 37.5345C44.2338 37.8584 44.0402 38.1214 44.3015 38.4645C44.0402 38.716 44.1176 39.0629 43.8999 39.3411C43.6351 39.7233 43.4038 40.1193 43.2078 40.5265C43.1863 40.5728 43.1765 40.622 43.1788 40.6713C43.1788 40.698 43.1788 40.7551 43.2175 40.7551C43.2666 40.7541 43.3141 40.7407 43.353 40.717C43.3869 40.717 43.4062 40.6713 43.4401 40.6484C43.8563 40.3283 43.8757 39.7413 44.5726 39.6117C44.5726 39.6117 44.6064 39.5317 44.5726 39.4936C44.4661 39.2191 44.5726 39.1124 44.9549 39.0476C45.1146 39.0476 45.2646 38.8494 45.3711 38.7198C45.6808 38.3387 45.9567 37.9575 46.2567 37.5764C46.6874 37.0275 47.1424 36.4901 47.5537 35.9337C48.1393 35.1371 48.7007 34.3329 49.2669 33.5286C49.8331 32.7244 50.4187 31.8669 51.0092 31.0436C51.3775 30.4879 51.7813 29.9473 52.219 29.4237C52.7853 28.791 53.4338 28.2041 54.0387 27.5904C54.3388 27.2893 54.6146 26.9692 54.9098 26.6642C55.3394 26.2624 55.7432 25.8439 56.1197 25.4103C56.4599 24.9333 57.0059 24.5682 57.6587 24.3812C58.9121 24 60.1414 23.5922 61.3803 23.1996C62.3482 22.8985 63.2774 22.6051 64.2308 22.3078C64.7825 22.1362 65.3439 21.9762 65.8956 21.8008C67.3475 21.3358 68.7993 20.8708 70.2512 20.3982C72.1515 19.7859 74.0502 19.1671 75.9473 18.5421C76.9443 18.2143 77.9364 17.8598 78.9382 17.5396C80.4239 17.0632 81.9242 16.6211 83.4002 16.1332C85.0215 15.5996 86.6234 15.0317 88.2398 14.4714C89.5561 14.0179 90.8628 13.5491 92.184 13.1031C93.8923 12.5238 95.6152 11.9597 97.3333 11.3956C97.5123 11.3346 97.5027 11.3346 97.4785 11.1136C97.4825 11.0875 97.4942 11.0625 97.5127 11.0407C97.5312 11.0188 97.5559 11.0007 97.5849 10.9878C98.1463 10.8125 98.7174 10.6486 99.2788 10.4656C99.4772 10.4008 99.7627 10.3093 99.8063 10.1874C99.8789 9.97775 99.9515 9.91677 100.218 9.95488C100.484 9.993 100.832 10.0159 100.934 9.67284C100.963 9.57755 101.157 9.4937 101.171 9.72238L101.655 9.6271V9.53944C101.171 9.51276 101.481 9.42509 101.655 9.36411C101.829 9.30313 101.921 9.28407 102.057 9.23833C102.734 9.01727 103.412 8.80002 104.08 8.56371C104.143 8.54084 104.147 8.40744 104.176 8.31977C102.71 8.68948 101.253 9.08206 99.8063 9.4937ZM57.9345 17.574L55.6454 20.4363C55.3938 20.7489 55.1615 21.0652 54.8808 21.3663C54.7827 21.469 54.6503 21.5481 54.4985 21.595C52.9853 22.1032 51.4657 22.5962 49.9396 23.0739C49.8815 23.0739 49.7896 23.0739 49.717 23.0548C49.744 22.9967 49.7832 22.9425 49.8331 22.8947C50.4042 22.5136 50.9801 22.1096 51.556 21.7208C53.1095 20.6688 54.6678 19.6207 56.2117 18.5611C56.7682 18.18 57.2957 17.7988 57.8377 17.3948C57.8868 17.3664 57.9386 17.3409 57.9926 17.3186C57.9926 17.3453 58.0265 17.3719 58.0458 17.4101C58.0652 17.4482 57.9781 17.5206 57.9345 17.574Z" fill="white"/>
<path d="M148.366 19.533C147.819 19.6398 147.282 19.7503 146.74 19.8494C146.3 19.9294 145.859 20.0057 145.419 20.0743C145.211 20.1048 145.153 20.0323 145.24 19.8799C145.448 19.4987 145.637 19.1366 145.869 18.7784C146.217 18.241 146.59 17.715 146.968 17.1852C147.051 17.0741 147.157 16.9749 147.282 16.8917C147.427 16.7888 147.621 16.7392 147.597 16.5106C147.597 16.4381 147.815 16.32 147.955 16.2743C148.995 15.9274 150.05 15.6034 151.086 15.2452C151.517 15.0965 151.899 14.864 152.325 14.7039C153.293 14.3457 154.261 14.0103 155.229 13.671C156.782 13.126 158.345 12.5886 159.899 12.0359C161.051 11.6281 162.188 11.1898 163.335 10.7743C165.271 10.0807 167.168 9.38317 169.099 8.71235C170.149 8.35027 171.238 8.0606 172.293 7.70994C173.096 7.44314 173.89 7.14204 174.674 6.83712C174.906 6.74565 175.09 6.57795 175.318 6.47504C175.545 6.37213 175.763 6.13201 176.179 6.28446C176.363 6.35307 176.716 6.18537 176.973 6.09008C178.449 5.54505 179.915 4.96952 181.401 4.43973C182.524 4.05858 183.676 3.70031 184.789 3.32297C186.11 2.87704 187.417 2.40061 188.747 1.96991C190.209 1.49729 191.683 1.04754 193.171 0.620663C193.753 0.480539 194.345 0.363508 194.942 0.27001C195.038 0.243802 195.132 0.211951 195.223 0.174724L195.591 0.0451355C195.494 0.132799 195.426 0.250953 195.305 0.304313C194.192 0.811235 193.069 1.31053 191.946 1.7984C191.758 1.86121 191.564 1.91219 191.366 1.95086C191.249 1.98135 191.099 1.99278 191.032 2.05758C190.548 2.54163 189.696 2.50733 189.135 2.88085C188.704 2.7665 188.588 3.14003 188.278 3.22769C187.968 3.31535 187.62 3.49068 187.31 3.58215C186.646 3.80517 185.999 4.05974 185.374 4.34444C184.958 4.51977 184.503 4.64554 184.072 4.80181C183.985 4.83231 183.879 4.90091 183.869 4.96189C183.83 5.16771 183.651 5.11435 183.497 5.11435C183.354 5.1036 183.21 5.11263 183.071 5.14103C182.954 5.17533 182.872 5.27824 182.771 5.35066H183.134C183.206 5.35066 183.284 5.35066 183.361 5.35066C183.308 5.40021 183.274 5.465 183.211 5.48787C182.698 5.68988 182.19 5.89951 181.667 6.07865C181.554 6.11195 181.451 6.16288 181.364 6.22838C181.276 6.29387 181.207 6.37258 181.159 6.45979C180.996 6.68189 180.756 6.86295 180.467 6.98196C178.183 7.92465 175.882 8.85083 173.566 9.7605C172.559 10.1416 171.514 10.4847 170.502 10.8696C170.18 11.006 169.884 11.1794 169.626 11.3842C168.698 12.0172 167.676 12.5598 166.582 13.0002C165.421 13.511 164.264 14.0293 163.083 14.5248C162.285 14.8488 161.419 15.0775 160.664 15.4281C160.03 15.714 159.323 15.855 158.689 16.137C158.621 16.1675 158.505 16.2247 158.515 16.2476C158.66 16.6287 158.152 16.6745 157.953 16.8612C157.619 17.1814 157.605 17.2195 158.016 17.4329C158.713 17.7912 159.4 18.1647 160.078 18.5459C160.755 18.927 161.428 19.331 162.106 19.716C162.279 19.819 162.491 19.8746 162.708 19.8746C162.926 19.8746 163.137 19.819 163.311 19.716C163.41 19.6692 163.515 19.6321 163.625 19.6055C163.601 19.7052 163.567 19.8033 163.524 19.8989C163.372 20.2084 163.185 20.5069 162.967 20.7908C162.624 21.191 162.212 21.5531 161.825 21.9342C161.461 22.3242 161.065 22.6947 160.639 23.0434C160.223 23.3572 159.744 23.6147 159.221 23.8057C158.233 24.1242 157.279 24.5067 156.371 24.9491C155.95 25.1625 155.679 25.5132 155.156 25.639C154.648 25.8091 154.162 26.0171 153.704 26.2602C153.22 26.4622 152.736 26.6414 152.281 26.8434C152.127 26.912 151.991 27.0073 151.846 27.0873C152.049 27.1902 152.248 27.3046 152.461 27.396C152.5 27.4013 152.541 27.4 152.58 27.3921C152.62 27.3842 152.656 27.37 152.688 27.3503C153.08 27.0911 153.443 27.2207 153.83 27.3503C154.217 27.4799 154.677 27.598 155.103 27.7314C155.183 27.7461 155.257 27.7748 155.321 27.8153C155.901 28.3718 156.797 28.4709 157.552 28.7605C157.886 28.8863 158.181 29.2103 158.65 29.0502C159.299 29.6295 160.334 29.5266 161.114 29.923C161.873 30.2334 162.667 30.4886 163.485 30.6853C163.762 30.7569 164.032 30.8435 164.293 30.9445C164.366 30.9826 164.428 31.032 164.475 31.0897C164.523 31.1474 164.555 31.2121 164.569 31.2799C164.617 31.661 164.922 31.7792 165.314 31.9012C166.398 32.2366 167.463 32.6063 168.542 32.9569C169.278 33.1932 170.033 33.4105 170.769 33.6544C171.736 33.986 172.704 34.3443 173.701 34.6683C174.529 34.9427 175.376 35.1752 176.208 35.4306C177.041 35.6859 177.955 36.0023 178.831 36.2805C179.707 36.5587 180.491 36.8141 181.328 37.0695C181.919 37.2486 182.529 37.382 183.105 37.584C183.189 37.6354 183.258 37.7005 183.307 37.7748C183.356 37.8492 183.385 37.931 183.39 38.0147C183.448 38.4759 183.458 38.4645 184.024 38.6436C184.251 38.693 184.462 38.7787 184.644 38.8955C184.826 39.0123 184.976 39.1575 185.084 39.322C185.084 39.3449 185.195 39.364 185.224 39.3487C185.558 39.1924 185.616 39.2191 185.684 39.5622C185.684 39.6079 185.757 39.646 185.79 39.6879C186.105 39.4745 186.168 39.7413 186.352 39.8404C186.583 39.9417 186.83 40.0173 187.087 40.0653C187.721 40.233 188.254 40.5951 188.936 40.6599C189.016 40.678 189.09 40.7092 189.154 40.7513C190.761 41.6127 192.629 42.051 194.332 42.7523C195.397 43.1906 196.52 43.5413 197.599 43.9567C198.185 44.1778 198.741 44.4522 199.312 44.719C199.395 44.7635 199.483 44.803 199.573 44.8372C199.67 44.8586 199.769 44.8739 199.869 44.8829C199.724 44.9325 199.573 45.0354 199.443 45.0239C199.208 44.9848 198.981 44.9234 198.765 44.841C197.492 44.4599 196.229 44.033 194.947 43.648C193.979 43.3622 193.011 43.1106 192.043 42.8438L187.204 41.5022C185.481 41.0257 183.753 40.5608 182.035 40.0767C180.806 39.7299 179.586 39.3525 178.357 39.0019C176.697 38.5331 175.027 38.0757 173.363 37.6145C172.395 37.3477 171.427 37.0771 170.459 36.8141C169.941 36.6731 169.409 36.5587 168.896 36.3987C168.4 36.1866 167.873 36.0228 167.328 35.9108C167.028 35.3619 166.306 35.4191 165.75 35.24C165.193 35.0608 164.545 34.8245 163.93 34.6416C163.316 34.4586 162.682 34.3329 162.067 34.1537C161.452 33.9746 160.755 33.7116 160.088 33.5172C159.085 33.1745 158.043 32.909 156.976 32.7244C155.882 32.5803 154.821 32.312 153.825 31.9278C152.857 31.5467 151.889 31.0703 150.805 30.9064C150.537 30.8508 150.259 30.8302 149.983 30.8454C149.6 30.8201 149.231 30.7248 148.903 30.5672C148.666 30.4871 148.468 30.3347 148.221 30.2661C146.634 29.7706 145.012 29.3894 143.44 28.9282C142.428 28.6424 141.441 28.3184 140.454 27.9944C140.008 27.8496 140.047 27.8267 140.294 27.4875C140.463 27.2512 140.942 27.0759 140.623 26.6871C140.594 26.6528 140.942 26.3822 141.16 26.2755C141.973 25.8943 142.81 25.5132 143.638 25.132C143.808 25.04 143.992 24.9645 144.185 24.9072C144.242 24.902 144.3 24.9076 144.354 24.9235C144.408 24.9394 144.456 24.9652 144.495 24.9986C144.529 25.0329 144.451 25.2121 144.398 25.2197C144.016 25.2731 144.248 25.4941 144.204 25.6313C144.204 25.6618 144.204 25.7228 144.204 25.7228C144.495 25.7873 144.798 25.8118 145.1 25.7952C145.375 25.694 145.634 25.566 145.869 25.4141C146.279 25.2027 146.71 25.0167 147.156 24.8576C149.121 24.244 151.105 23.6608 153.075 23.051C153.99 22.7689 154.89 22.4526 155.8 22.1515C155.914 22.116 156.024 22.0726 156.129 22.0219C156.376 21.8885 156.352 21.7627 156.08 21.6789C155.529 21.5074 154.977 21.3244 154.411 21.1796C153.259 20.8899 152.083 20.6384 150.936 20.3372C150.196 20.1429 149.484 19.8913 148.753 19.6626L148.366 19.533Z" fill="white"/>
<path d="M121.023 14.4905C120.728 15.4167 120.5 16.4229 120.084 17.3758C119.319 19.1176 118.434 20.8289 117.616 22.5593C117.132 23.5694 116.706 24.587 116.251 25.6085C116.057 26.0468 115.869 26.4851 115.656 26.9196C115.564 27.1178 115.307 27.3008 115.515 27.5294V27.5714C114.872 27.8648 114.998 28.4747 114.649 28.8673C114.314 29.3085 114.078 29.792 113.952 30.2965C113.715 30.9445 113.536 31.6039 113.338 32.2556C113.338 32.3052 113.338 32.37 113.309 32.3966C112.728 32.8845 112.742 33.5744 112.341 34.1385C112.025 34.7215 111.772 35.3246 111.586 35.9413C111.305 36.6312 111.024 37.321 110.71 38.0033C110.124 39.2877 109.514 40.5646 108.909 41.8414C108.861 41.9267 108.803 42.0084 108.735 42.0853C108.583 42.2324 108.451 42.3922 108.343 42.5618C107.98 43.3812 107.632 44.2007 107.293 45.0278C106.954 45.8548 106.611 46.7124 106.296 47.5586C106.093 48.0998 105.943 48.6563 105.754 49.2013C105.565 49.7463 105.377 50.2532 105.178 50.7792C104.922 51.4767 104.665 52.1742 104.394 52.8679C104.336 53.0089 104.394 53.249 104.012 53.1957C103.963 53.1957 103.823 53.4244 103.78 53.5768C103.605 54.1219 103.45 54.6707 103.296 55.2196C103.194 55.5626 103.092 55.9056 102.976 56.2486C102.976 56.2868 102.855 56.3096 102.792 56.3401C102.777 56.2966 102.769 56.2518 102.768 56.2067C102.884 55.6655 103 55.1243 103.126 54.583C103.199 54.2591 103.291 53.9389 103.349 53.6149C103.385 53.4874 103.37 53.3541 103.305 53.2338C103.223 53.1004 103.112 53.0089 103.412 52.9899C103.412 52.9899 103.475 52.9289 103.47 52.9213C103.378 52.845 103.194 52.7574 103.208 52.7002C103.223 52.643 103.407 52.5401 103.475 52.4448C103.531 52.3396 103.571 52.2296 103.596 52.117C103.61 52.0876 103.62 52.0569 103.625 52.0256C103.625 51.9455 103.625 51.8655 103.625 51.7854C103.567 51.8502 103.518 51.915 103.455 51.9722C103.401 52.0095 103.343 52.0427 103.281 52.0713C103.276 52.0142 103.276 51.9569 103.281 51.8998C103.315 50.9545 103.721 50.0665 104.002 49.1556C104.23 48.4199 104.423 47.6767 104.656 46.9411C104.81 46.4609 105.009 45.9921 105.173 45.5156C105.241 45.3136 105.444 45.1154 105.202 44.8944C105.164 44.8563 105.202 44.7419 105.251 44.6695C105.44 44.3265 105.44 44.3303 105.251 43.8119C105.251 43.7624 105.328 43.6899 105.381 43.6328C105.488 43.507 105.609 43.385 105.711 43.2516C105.711 43.225 105.711 43.1563 105.657 43.1297C105.473 42.9925 105.473 43.0001 105.759 42.8857C105.817 42.8629 105.856 42.8095 105.909 42.7676C105.851 42.7676 105.798 42.7676 105.744 42.7676C105.517 42.7904 105.502 42.6837 105.546 42.5579C105.619 42.3407 105.72 42.1273 105.802 41.91L106.978 38.8151C107.172 38.3082 107.375 37.8013 107.569 37.2905C107.608 37.18 107.7 37.039 107.404 37.0657C107.346 36.9942 107.317 36.9104 107.322 36.8255C107.458 36.2348 107.617 35.6516 107.767 35.0608C107.877 34.3141 108.073 33.5767 108.353 32.8578C108.658 32.2442 108.837 31.6039 109.098 30.9864C109.321 30.5062 109.703 30.0374 109.548 29.4618C109.546 29.4067 109.56 29.352 109.587 29.3013C109.615 29.2506 109.656 29.2053 109.708 29.1684C110.131 28.8287 110.373 28.3747 110.386 27.8991C110.388 27.8035 110.397 27.708 110.415 27.6133C110.444 27.4951 110.492 27.3808 110.531 27.2664C110.347 27.3136 110.172 27.3816 110.013 27.4685C109.345 27.9639 108.697 28.4785 108.043 28.993C108.012 29.0142 107.988 29.0419 107.975 29.0731C107.977 29.2627 107.888 29.4459 107.727 29.5868C107.566 29.7278 107.344 29.8164 107.104 29.8354C107.046 29.8354 106.998 29.9573 106.983 30.0259C106.896 30.4833 106.867 30.4681 106.32 30.4071C105.785 30.349 105.282 30.1733 104.868 29.9002C104.67 29.7945 104.508 29.6519 104.396 29.485C104.285 29.3181 104.228 29.1321 104.23 28.9435C104.23 28.6386 104.23 28.3337 104.23 28.0287C104.263 27.0926 104.554 26.1732 105.081 25.334C105.559 24.4803 106.032 23.624 106.499 22.7651C106.864 22.0953 107.407 21.4949 108.092 21.0043C108.237 20.8975 108.363 20.7222 108.576 20.9013C108.64 20.8543 108.7 20.8033 108.755 20.7489C108.876 20.6117 109.001 20.4745 109.108 20.3296C109.311 20.0361 109.5 19.7389 109.703 19.4454C109.732 19.4073 109.824 19.392 109.882 19.3691C109.904 19.4117 109.917 19.4567 109.921 19.5025C109.921 19.5826 109.858 19.6588 109.848 19.7389C109.781 20.1695 109.708 20.5964 109.655 21.0309C109.587 22.178 109.383 23.3175 109.045 24.4345C108.918 24.7096 108.931 25.0124 109.079 25.2807C109.219 25.5132 109.311 25.4903 109.51 25.3722C110.381 24.8614 111.218 24.2973 112.147 23.8476C112.931 23.4664 113.178 22.8871 113.507 22.323C113.836 21.7589 114.189 21.0767 114.538 20.4516C114.576 20.3622 114.641 20.2812 114.727 20.2153C115.148 19.9099 115.499 19.5503 115.767 19.1519C115.811 19.1023 115.835 19.0109 115.898 18.9918C116.832 18.7212 116.948 17.9818 117.35 17.4101C117.8 16.7469 118.095 16.0303 118.589 15.3748C119.131 14.6582 119.556 13.8883 120.04 13.1298C120.123 12.9964 120.176 12.8668 120.369 12.9431C120.447 12.9774 120.466 13.1451 120.452 13.248C120.414 13.4093 120.362 13.5685 120.297 13.7244C120.432 13.5801 120.549 13.4256 120.645 13.2632C120.776 12.9926 120.849 12.7067 120.965 12.4323C120.989 12.3713 121.095 12.337 121.163 12.2875C121.2 12.3568 121.231 12.4281 121.255 12.5009C121.255 12.5429 121.212 12.5886 121.192 12.6343C121.008 13.1184 120.824 13.5986 120.65 14.0827C120.65 14.1094 120.737 14.1932 120.747 14.1894C121.376 13.9112 120.887 14.3419 121.023 14.4905Z" fill="white"/>
<path d="M107.404 31.9202C107.321 31.8316 107.232 31.7463 107.138 31.6649C107.041 31.5505 106.872 31.4057 106.901 31.3104C106.974 31.1046 106.833 31.1084 106.674 31.0512C106.347 30.9649 106.041 30.8361 105.769 30.6701C105.419 30.4187 104.994 30.2405 104.535 30.1517C104.322 30.1032 104.119 30.0327 103.93 29.9421C103.15 29.5609 102.362 29.1798 101.611 28.7529C101.036 28.4289 100.411 28.1202 100.16 27.5523C100.135 27.5066 100.014 27.4875 99.9369 27.457C99.803 27.4188 99.6721 27.3743 99.5449 27.3236C98.7658 26.9234 97.9769 26.5308 97.2074 26.1116C96.438 25.6923 95.7556 25.2845 95.0296 24.8652C94.9738 24.8233 94.925 24.7759 94.8845 24.7242C94.9588 24.7082 95.035 24.698 95.1119 24.6937C95.8911 24.6937 96.6702 24.7318 97.4543 24.6937C98.2383 24.6556 99.0513 24.6594 99.8498 24.6327C100.092 24.6327 100.334 24.5946 100.571 24.5718V24.6366C101.053 24.6191 101.53 24.5512 101.989 24.4345C103.228 23.9924 104.036 23.1768 104.738 22.2887C104.888 22.0981 104.801 22.06 104.602 21.9685C104.244 21.8047 103.634 21.9685 103.523 21.4769C103.489 21.4782 103.455 21.4782 103.421 21.4769C103.194 21.4484 102.969 21.4076 102.749 21.3549C102.202 21.2063 101.679 21.0004 101.127 20.8899C98.8722 20.4478 96.6122 20.0285 94.3521 19.6055C92.4163 19.2472 90.5095 18.8851 88.5834 18.5421C87.5187 18.3553 86.4443 18.2105 85.3844 18.0275C84.6103 17.8648 83.8045 17.817 83.0082 17.8865C82.6017 17.9322 82.1903 17.936 81.7838 17.9513C81.3773 17.9665 81.1644 18.1952 81.3434 18.5039C81.5326 18.8255 81.7442 19.1385 81.9774 19.4416C82.1952 19.7274 82.3162 20.0857 82.7662 20.2038C83.2163 20.322 83.7729 20.4706 84.2617 20.6307C84.5327 20.7184 84.6101 20.6574 84.7117 20.4706C84.8399 20.3138 85.0161 20.1848 85.2242 20.0955C85.4322 20.0063 85.6654 19.9596 85.9023 19.9599C86.3281 20.0247 86.7443 20.1162 87.1702 20.1657C87.4509 20.2 87.4896 20.2839 87.4364 20.4897C87.1654 21.5722 86.9186 22.6584 86.6476 23.7409C86.5556 24.122 86.2943 24.5032 86.3572 24.8614C86.4733 25.5284 86.3572 26.2259 86.7347 26.8624C86.7829 26.9499 86.798 27.0466 86.7782 27.1407C86.7008 27.5028 86.5992 27.8648 86.512 28.2269C86.3136 29.0502 86.1152 29.8773 85.9313 30.7006C85.9105 30.8043 85.9398 30.9104 86.0136 30.9979C86.1781 31.1579 86.2362 31.2303 86.1297 31.2647C85.7668 31.3904 85.8394 31.5467 86.0039 31.7525C86.0514 31.8415 86.0649 31.9396 86.0426 32.0346C85.9507 32.6139 85.8394 33.178 85.7522 33.7688C85.7377 33.9197 85.7377 34.0714 85.7522 34.2223C85.8589 34.0955 85.9482 33.96 86.0184 33.8183C86.2604 33.1475 86.4782 32.4767 86.7153 31.8021C86.7488 31.7516 86.7894 31.7043 86.8363 31.661C86.8392 31.7035 86.8474 31.7456 86.8605 31.7868C86.8895 31.8554 86.9282 31.9202 86.9621 31.985C87.0359 31.9311 87.098 31.868 87.146 31.7983C87.5525 30.8187 87.9639 29.8392 88.3462 28.852C88.7286 27.8648 89.0383 26.9463 89.3819 26.0125C89.4932 25.7076 89.6045 25.6695 89.8659 25.8448C90.9791 26.6092 92.206 27.2645 93.5197 27.7962C94.2505 28.0821 94.9716 28.5585 95.8814 28.2307C95.9018 28.2252 95.9239 28.2252 95.9443 28.2307C96.5879 28.3258 97.2232 28.4531 97.8463 28.6119C98.3574 28.8073 98.8535 29.0262 99.332 29.2675C100.726 29.8239 102.11 30.388 103.523 30.9102C104.714 31.3485 105.943 31.7335 107.148 32.1375C107.242 32.1587 107.34 32.1664 107.438 32.1603C107.443 32.0794 107.432 31.9983 107.404 31.9202ZM91.0806 22.6546C90.8144 22.6546 90.6886 22.5822 90.766 22.3611C90.9015 21.98 91.0515 21.5988 91.1677 21.2406C91.25 20.9928 91.429 20.9433 91.7194 20.9966C92.6583 21.1796 93.5971 21.3549 94.536 21.5302C95.3345 21.6789 96.1331 21.8161 96.9267 21.9685C97.3236 22.0448 97.7108 22.1401 98.1028 22.2315C98.1463 22.2315 98.1802 22.2773 98.2141 22.3001C98.0979 22.3687 97.9963 22.4755 97.8656 22.4945C97.4424 22.5638 97.014 22.6122 96.5831 22.6394C96.1766 22.6622 95.7653 22.6394 95.3539 22.6394C93.9311 22.6546 92.5082 22.6508 91.0806 22.6546Z" fill="white"/>
<path d="M49.8864 39.9738C49.9928 39.7375 50.109 39.505 50.2106 39.2687C50.3558 38.9409 50.501 38.6093 50.6365 38.2739C50.6441 38.2469 50.6441 38.219 50.6366 38.192C50.629 38.165 50.6142 38.1396 50.5929 38.1176C50.3945 38.0223 50.3848 37.988 50.5929 37.9194C50.9366 37.8203 50.9027 37.8127 50.7769 37.504C50.7569 37.3638 50.7942 37.2223 50.8833 37.1C51.3673 36.231 51.8512 35.3581 52.432 34.5082C53.3999 32.9836 54.4081 31.4806 55.4567 29.9992C56.2649 28.8558 57.1602 27.7124 57.9491 26.5385C58.256 26.1534 58.7256 25.866 59.2751 25.7266C60.3204 25.3455 61.4093 25.0596 62.4837 24.7509C62.5456 24.7449 62.6084 24.7516 62.666 24.7703C62.7236 24.789 62.7742 24.8191 62.8128 24.8576C63.0168 25.2411 63.1662 25.6412 63.258 26.0506C63.2991 26.515 63.2991 26.9812 63.258 27.4456C63.2288 27.6227 63.2288 27.8021 63.258 27.9792C63.3039 28.132 63.417 28.2671 63.5774 28.3603C63.6549 28.3984 63.9162 28.2879 64.013 28.1964C64.5647 27.6628 65.3148 27.2626 65.6875 26.6071C65.7674 26.4941 65.8686 26.3913 65.9875 26.3022C66.0335 26.2703 66.0858 26.2445 66.1424 26.2259C66.1424 26.2831 66.1763 26.3403 66.186 26.3974C66.1956 26.4546 66.186 26.4813 66.186 26.5232C66.2299 26.5 66.272 26.4745 66.3118 26.447C66.4231 26.3403 66.5344 26.2259 66.6409 26.1154C66.6893 26.0697 66.7328 26.0163 66.7764 25.9667C66.699 25.9667 66.5925 26.001 66.5441 25.9667C66.4957 25.9324 66.4425 25.8295 66.4715 25.7952C66.728 25.4751 67.0135 25.1663 67.27 24.8462C67.7927 24.202 68.3008 23.5541 68.8138 22.9023C69.0558 22.586 69.2639 22.2506 69.5446 21.9533C69.6098 21.8994 69.6903 21.8585 69.7795 21.834C69.8687 21.8095 69.964 21.802 70.0576 21.8123C70.5415 21.8923 71.0255 22.0219 71.4659 22.1362C71.6788 22.1896 71.8869 22.2658 72.0999 22.3192C72.4145 22.3954 72.4338 22.5898 72.4145 22.788C72.3715 23.3026 72.447 23.8191 72.6371 24.3126C72.6791 24.4825 72.652 24.6586 72.5596 24.8157C72.2983 25.2959 71.9692 25.7571 71.7176 26.2412C71.2336 27.1788 70.7884 28.1278 70.3141 29.0693C70.1945 29.2906 70.0571 29.5058 69.9027 29.7134C69.6455 30.1329 69.4818 30.5842 69.4188 31.0474C69.4188 31.1465 69.2397 31.2189 69.172 31.318C69.1042 31.4171 69.0074 31.5391 69.2881 31.5467C69.322 31.5467 69.3897 31.7182 69.3801 31.7258C68.6735 32.0498 68.5331 32.6482 68.2379 33.1704C67.9766 33.6316 67.604 34.0546 67.4007 34.5272C67.0491 35.1752 66.7942 35.8531 66.6409 36.5473C66.6089 36.7553 66.5604 36.9615 66.4957 37.1648C66.4957 37.1953 66.4086 37.2181 66.365 37.2448C66.336 37.2067 66.2779 37.1724 66.2779 37.1381C66.2779 37.0237 66.307 36.9132 66.3118 36.7989C66.3795 35.1981 66.2295 33.5858 66.5247 31.9926C66.5616 31.6659 66.4594 31.3387 66.2344 31.0626C66.0988 30.8454 65.9585 30.7958 65.6778 30.994C65.2449 31.289 64.7855 31.559 64.3034 31.8021C63.9598 31.9888 63.892 31.9317 63.6065 31.642C63.3508 31.4148 63.0689 31.2068 62.7644 31.0207C62.716 30.9902 62.6144 31.0207 62.5418 30.994C62.5642 31.0489 62.5917 31.1024 62.6241 31.1541C62.6531 31.196 62.7208 31.2265 62.7402 31.2685C62.7581 31.3374 62.7662 31.4077 62.7644 31.4781C62.6706 31.4791 62.5773 31.4675 62.4885 31.4438C61.929 31.1847 61.5013 30.7805 61.2787 30.3004C61.1093 29.9535 60.9738 29.599 60.7947 29.2484C60.7447 29.1621 60.683 29.0804 60.6108 29.0045C60.5248 29.0639 60.4469 29.1304 60.3785 29.2027C59.6816 30.0221 59.0186 30.8568 58.2927 31.661C57.7216 32.2937 57.0828 32.8883 56.4488 33.4867C56.3375 33.5934 56.1149 33.6239 55.9648 33.7002C55.8795 33.73 55.8035 33.7743 55.7422 33.8298C54.7308 34.9732 53.7145 36.1166 52.7127 37.26C52.4562 37.5535 52.2287 37.8699 51.9916 38.1595C51.7544 38.4492 51.6093 38.7732 51.0237 38.8075C50.8494 38.8075 50.7236 39.1658 50.5397 39.3373C50.3558 39.5088 50.3074 39.9204 49.8428 39.97L49.8864 39.9738Z" fill="white"/>
<path d="M135.754 5.18296C135.696 5.42689 135.643 5.63271 135.609 5.84234C135.607 5.90443 135.618 5.9664 135.643 6.02529C135.701 5.97193 135.788 5.92238 135.812 5.86139C136.088 5.17152 136.35 4.47784 136.635 3.78797C136.718 3.65371 136.817 3.52607 136.93 3.40683L137.361 2.797C137.385 2.76269 137.424 2.72839 137.453 2.69409C137.453 2.73601 137.516 2.77794 137.511 2.81605C137.443 3.32297 137.381 3.83371 137.289 4.34063C137.187 4.92759 137.027 5.50693 136.959 6.09389C136.872 6.81425 136.863 7.53843 136.795 8.25879C136.727 8.97915 136.621 9.74906 136.543 10.4923C136.509 10.8048 136.514 11.1174 136.485 11.4299C136.485 11.6167 136.413 11.8111 136.393 11.9864C136.354 12.2392 136.336 12.4939 136.34 12.7487C136.34 12.9735 136.054 13.1298 136.195 13.4042C136.25 13.6455 136.216 13.8941 136.098 14.1208C135.924 14.643 135.701 15.1537 135.512 15.6682C135.445 15.8588 135.42 16.0494 135.377 16.2514C135.358 16.585 135.273 16.9142 135.125 17.2271C134.743 17.7493 134.361 18.2524 134.419 18.8737C134.395 19.2732 134.259 19.6636 134.022 20.0171C133.731 20.6688 133.272 21.2939 133.146 21.9609C132.855 23.1085 132.477 24.2413 132.013 25.3531C131.681 26.138 131.275 26.9024 130.799 27.64C130.373 28.4023 129.923 29.1645 129.487 29.9268C129.415 30.0564 129.41 30.2127 129.323 30.3385C129.212 30.4733 129.087 30.6008 128.95 30.7196C128.906 30.7615 128.858 30.7997 128.819 30.8416C128.46 31.216 128.177 31.6328 127.982 32.0765C127.73 32.793 127.348 33.4829 127.014 34.1804C126.967 34.2474 126.907 34.308 126.835 34.3595C126.835 34.2795 126.835 34.1956 126.859 34.1118C126.898 33.906 126.946 33.7002 126.985 33.4943C126.986 33.4398 126.974 33.3857 126.951 33.3343C126.888 33.3724 126.796 33.3991 126.767 33.4486C126.409 34.1309 126.061 34.8131 125.703 35.4953C125.562 35.7583 125.383 36.0099 125.219 36.2576C125.175 36.3832 125.139 36.5104 125.112 36.6388C125.064 36.7569 124.812 36.7455 124.919 37.0199C125.025 37.2943 124.706 37.5878 124.57 37.8737C124.57 37.9004 124.512 37.9118 124.483 37.9309C124.45 37.8999 124.422 37.8652 124.401 37.8279C124.207 37.26 124.207 37.26 124.352 36.9094C124.498 36.5587 124.604 36.311 124.72 36.0137C124.808 35.8224 124.878 35.6262 124.928 35.4267C125.025 34.9694 125.112 34.5044 125.161 34.0432C125.161 33.9022 125.049 33.7573 125.011 33.6087C124.875 33.0827 125.17 32.6025 125.296 32.1108C125.456 31.535 125.655 30.9662 125.891 30.4071C126.109 29.862 126.409 29.3361 126.613 28.791C126.767 28.3603 126.811 27.903 126.937 27.4646C127.135 26.7786 127.338 26.0963 127.585 25.4217C127.832 24.7471 128.108 24.0382 128.442 23.3673C129.284 21.6713 129.739 19.8761 130.629 18.1914C130.743 17.8995 130.828 17.6014 130.886 17.2995C130.97 16.799 131.165 16.314 131.462 15.8664C131.569 15.6936 131.641 15.5083 131.675 15.3176C132.067 14.1475 132.439 12.9735 132.851 11.8072C133.107 11.0678 133.431 10.3436 133.707 9.60804C133.983 8.87243 134.264 8.03392 134.545 7.24495C134.574 7.15347 134.588 7.02388 134.67 6.98196C135.314 6.64655 135.154 6.05959 135.382 5.60222C135.442 5.46538 135.489 5.32524 135.522 5.18296C135.551 5.11435 135.6 5.04956 135.638 4.98095L135.754 5.18296Z" fill="white"/>
<path d="M84.1407 22.4945C83.86 22.4221 83.5599 22.3954 83.2696 22.3421C83.2405 22.3421 83.2115 22.2735 83.2115 22.262C83.6132 22.0448 83.1679 22.0028 83.0808 21.9609C82.6452 21.7627 82.1613 21.6255 81.7451 21.4044C81.6219 21.3179 81.4625 21.2701 81.2974 21.2701C81.1323 21.2701 80.973 21.3179 80.8498 21.4044C80.5143 21.5947 80.1912 21.7983 79.8819 22.0143C78.5268 23.0243 77.162 24.0534 75.807 25.0406C75.1875 25.4903 74.5245 25.902 73.9486 26.386C73.3727 26.8701 73.0436 27.3351 72.5548 27.7848C71.5418 28.6259 70.8014 29.647 70.3964 30.7615C70.3286 30.9712 70.3431 31.0703 70.6238 30.9635C70.8222 30.8911 70.9674 30.9026 71.0013 31.0626C71.1271 31.6077 71.6256 31.9583 72.0515 32.3509C72.3239 32.651 72.7103 32.8752 73.1549 32.9912C74.5493 33.2735 75.9794 33.432 77.4185 33.4639C77.5637 33.4639 77.7815 33.4181 77.8299 33.4639C77.896 33.573 77.9131 33.6967 77.8783 33.8145C77.7428 34.4815 77.5976 35.1485 77.4621 35.8155C77.4621 35.8612 77.4621 35.9451 77.5057 35.9603C77.6266 36.0107 77.7176 36.0964 77.7592 36.199C77.8008 36.3016 77.7897 36.413 77.7283 36.5092C77.5008 37.1228 77.2443 37.7212 76.9733 38.3272C76.7846 38.7884 76.6007 39.2496 76.4168 39.7146C76.4049 39.7663 76.4049 39.8192 76.4168 39.8709C76.4603 39.8404 76.5184 39.8175 76.5426 39.7794C76.5668 39.7413 76.6297 39.6003 76.6732 39.5088C76.9491 38.9409 77.2104 38.3654 77.5057 37.8013C77.742 37.396 78.07 37.0279 78.4736 36.715C78.956 36.2213 79.3759 35.6915 79.727 35.1333C79.7657 35.0875 79.848 35.0647 79.9061 35.0304C79.9346 35.071 79.9558 35.1147 79.969 35.1599C79.969 35.24 79.969 35.3238 79.969 35.4001C79.9964 35.4557 80.0356 35.5073 80.0851 35.5525C80.109 35.5102 80.13 35.467 80.148 35.4229C80.2303 35.1752 80.2884 34.9198 80.39 34.6606C80.7336 33.8336 81.116 33.0141 81.445 32.1832C81.8225 31.2494 82.1807 30.3156 82.5001 29.3704C82.8762 28.3118 83.3369 27.273 83.8793 26.2602C84.3971 25.2911 84.7047 24.2604 84.7892 23.2111C84.8182 22.6698 84.794 22.6584 84.1407 22.4945ZM80.724 25.1968C80.661 25.5094 80.5691 25.8181 80.4723 26.1306C80.2981 26.7214 80.1287 27.3122 79.9254 27.8991C79.8461 28.0409 79.7346 28.1701 79.5963 28.2803C79.5334 28.3451 79.4221 28.3908 79.3931 28.4594C79.0398 29.2675 78.1106 29.5038 77.2492 29.7858C76.8045 29.906 76.3502 30.0027 75.8892 30.0755V30.0107C75.2988 29.9802 74.7036 29.9688 74.1131 29.9078C73.9486 29.9078 73.7792 29.7477 73.6631 29.6295C73.6631 29.6067 73.8034 29.4237 73.9147 29.3551C75.5648 28.3584 77.1327 27.2802 78.6091 26.1268C79.1974 25.7385 79.8147 25.3783 80.4578 25.0482C80.8111 24.8157 80.753 25.0672 80.724 25.1968Z" fill="white"/>
<path d="M120.04 32.0841C119.909 32.1466 119.789 32.2222 119.682 32.309C119.441 32.5386 119.245 32.7956 119.102 33.0713C118.932 33.521 118.555 33.8831 118.361 34.3138C118.298 34.4586 118.313 34.6416 118.032 34.6606C117.998 34.6606 117.945 34.7369 117.95 34.7712C117.979 34.9449 117.95 35.1216 117.865 35.2836C117.78 35.4456 117.642 35.587 117.466 35.6935C117.592 35.9413 117.335 36.0976 117.224 36.2881C117.112 36.4787 117.006 36.7188 116.871 36.9246C116.773 37.0578 116.663 37.1852 116.541 37.3058C116.503 37.3477 116.445 37.3934 116.449 37.4316C116.479 37.7365 116.537 38.0414 116.043 38.1672C115.999 38.1672 115.966 38.2434 115.946 38.2853C115.709 38.8685 115.23 39.3716 115.051 39.9776C114.966 40.1916 114.854 40.3985 114.717 40.5951C114.688 40.6408 114.596 40.6637 114.533 40.6942C114.494 40.6294 114.412 40.5569 114.431 40.4998C114.469 40.2925 114.545 40.0908 114.659 39.9014C114.91 39.5202 114.799 39.0552 115.235 38.7579C115.264 38.7579 115.235 38.6474 115.201 38.5941C115.128 38.453 115.172 38.4073 115.351 38.4721C115.457 38.514 115.554 38.5712 115.453 38.4149C115.393 38.3488 115.344 38.2771 115.307 38.2015C115.254 38.0185 115.065 37.8203 115.467 37.6945C115.519 37.6751 115.563 37.6449 115.596 37.6072C115.628 37.5695 115.646 37.5256 115.649 37.4803C115.652 37.435 115.639 37.3899 115.612 37.3498C115.585 37.3096 115.545 37.276 115.496 37.2524C115.269 37.1152 115.312 36.978 115.365 36.7874C115.569 36.1319 115.69 35.461 115.922 34.8169C116.154 34.1728 116.498 33.5477 116.793 32.9112C117.432 31.5314 118.085 30.1555 118.705 28.772C119.073 27.9487 119.402 27.1178 119.736 26.2907C120.244 25.0139 120.728 23.7332 121.245 22.4602C121.371 22.1439 121.613 21.858 121.758 21.5455C121.942 21.1643 122.083 20.7489 122.242 20.3449C122.678 19.2014 123.114 18.0275 123.525 16.8612C123.578 16.7126 123.835 16.4801 123.414 16.3772C123.414 16.3772 123.414 16.2552 123.414 16.2018C123.521 15.8733 123.705 15.5632 123.956 15.2871C124.478 14.8678 124.512 14.3114 124.798 13.8273C125.117 13.2708 125.354 12.6839 125.606 12.1083C125.712 11.8568 125.732 12.1083 125.77 12.1083C125.855 12.0904 125.929 12.0517 125.983 11.9978C126.104 11.8682 126.201 11.7272 126.317 11.5938C126.375 11.529 126.482 11.4223 126.525 11.4299C127.009 11.5519 127.222 11.1898 127.585 11.125C127.842 11.0793 128.011 11.0526 127.934 10.7743C127.895 10.6295 127.968 10.4199 128.355 10.4351C128.495 10.4351 128.669 10.1112 128.795 9.92439C128.882 9.79861 128.906 9.64997 128.984 9.52038C129.008 9.47464 129.105 9.45939 129.173 9.4289C129.202 9.4937 129.274 9.5623 129.26 9.61566C129.124 9.99681 128.998 10.397 128.824 10.7591C128.727 10.9611 128.606 11.1097 128.998 11.1936C129.081 11.1936 129.158 11.4032 129.148 11.51C129.046 12.2595 128.77 12.9879 128.335 13.6596C128.253 13.8189 128.228 13.9929 128.263 14.1627C128.437 14.8811 128.35 15.6238 128.011 16.3047C127.676 17.0655 127.43 17.8489 127.276 18.645C127.181 19.1413 126.975 19.6202 126.666 20.059C126.508 20.3154 126.387 20.5852 126.308 20.8632C126.037 21.4921 125.799 22.1324 125.456 22.7346C125.219 23.0016 125.055 23.3038 124.972 23.6227C124.972 23.6761 124.778 23.718 124.682 23.7714C124.642 23.8045 124.607 23.8402 124.575 23.8781C124.991 24.0801 124.575 24.1449 124.493 24.2935C124.301 24.5997 124.139 24.917 124.009 25.2426C123.568 26.2107 123.143 27.1826 122.712 28.1507C122.672 28.2426 122.641 28.3369 122.62 28.4327C122.509 28.8939 122.412 29.3589 122.3 29.8201C122.296 29.9124 122.25 30.0005 122.17 30.0679C121.933 30.2089 121.662 30.3232 121.87 30.6167C121.87 30.6396 121.836 30.7158 121.792 30.7387C121.236 31.0131 121.086 31.501 120.732 31.8821C120.569 32.0059 120.381 32.1077 120.176 32.1832L120.04 32.0841Z" fill="white"/>
<path d="M144.746 3.5974C144.64 3.97854 144.529 4.28727 144.461 4.61887C144.441 4.82058 144.441 5.02317 144.461 5.22488C144.461 5.28587 144.461 5.34685 144.432 5.40783L144.311 5.27824C144.282 5.2973 144.233 5.31636 144.228 5.33923C144.228 5.58697 144.016 5.81566 144.18 6.10152C144.219 6.23998 144.206 6.3845 144.141 6.51696C143.948 7.26019 143.657 7.99961 143.556 8.75047C143.435 9.6614 143.498 10.5876 143.43 11.5061C143.352 12.581 143.43 13.6634 143.164 14.7268C142.847 15.8904 142.377 17.0248 141.76 18.1114C141.712 18.2012 141.652 18.2868 141.581 18.3667C141.547 18.4048 141.455 18.4544 141.407 18.4468C141.102 18.3934 141.088 18.3858 141.02 18.6145C140.763 19.5025 140.57 20.4059 140.26 21.2825C139.95 22.1591 139.849 23.0701 139.166 23.84C139.045 24.0061 138.963 24.1882 138.924 24.3774C138.722 24.9185 138.417 25.4325 138.019 25.902C137.351 26.7519 136.713 27.6171 136.083 28.4823C135.835 28.7989 135.612 29.1273 135.416 29.4656C135.229 29.7297 134.941 29.9405 134.593 30.0679C134.5 30.0934 134.401 30.105 134.303 30.1022C134.278 30.0314 134.27 29.9579 134.278 29.8849C134.467 29.3742 134.685 28.8711 134.859 28.3603C135.004 27.9182 135.101 27.4685 135.208 27.0187C135.208 26.9577 135.149 26.8853 135.116 26.8205C135.077 26.8815 135.043 26.9425 135.004 27.0073C134.864 27.2474 134.728 27.4875 134.578 27.7238C134.545 27.7696 134.448 27.7886 134.385 27.8191C134.375 27.766 134.375 27.7121 134.385 27.659C134.695 26.8967 135.014 26.1344 135.319 25.3722C135.401 25.1702 135.696 24.991 135.353 24.7395C135.222 24.648 135.682 23.9772 135.875 23.9124C136.069 23.8476 136.079 23.859 135.909 23.7104C135.878 23.6724 135.858 23.6295 135.85 23.5846C135.843 23.5398 135.848 23.4942 135.866 23.4512C136.122 22.8109 136.408 22.1744 136.659 21.5455C136.742 21.3358 136.717 21.1033 136.8 20.8975C137.201 19.8837 137.632 18.8813 138.034 17.8484C138.31 17.1547 138.561 16.4572 138.803 15.7559C138.848 15.6277 138.827 15.491 138.745 15.3748C138.603 15.2442 138.525 15.0779 138.525 14.9059C138.525 14.734 138.603 14.5677 138.745 14.4371C139.485 13.4897 140.046 12.4625 140.41 11.388C140.594 10.9459 140.894 10.5533 141.054 10.1073C141.349 9.21546 142.022 8.44555 142.404 7.58417C142.689 6.95528 142.888 6.2959 143.12 5.65558C143.135 5.62167 143.159 5.59078 143.191 5.56508C143.223 5.53939 143.261 5.51953 143.304 5.50693C143.72 5.43451 143.788 5.40021 143.594 5.19058C143.401 4.98095 143.478 4.91616 143.72 4.80944C143.962 4.70272 143.972 4.54264 144.093 4.40542C143.74 4.21485 144.122 4.11575 144.19 3.98998C144.292 3.84135 144.41 3.69983 144.543 3.56691C144.591 3.50592 144.649 3.44875 144.703 3.39158L144.746 3.5974Z" fill="white"/>
<path d="M104.167 8.28547C104.462 8.18637 104.752 8.07965 105.048 7.98818C105.754 7.76966 106.462 7.55749 107.172 7.35167C107.263 7.34661 107.355 7.35435 107.443 7.37454C107.383 7.42842 107.313 7.4747 107.235 7.51175C106.485 7.7633 105.725 7.9958 104.98 8.27404C104.855 8.32847 104.716 8.35861 104.574 8.36193C104.431 8.36525 104.29 8.34164 104.162 8.29309L104.167 8.28547Z" fill="white"/>
<path d="M113.899 42.2149C113.906 42.0473 113.938 41.8809 113.996 41.7194C114.025 41.6623 114.315 41.7194 114.383 41.647C114.521 41.4907 114.635 41.3218 114.722 41.1439C114.828 40.9686 114.915 40.7894 115.022 40.6141C115.022 40.5798 115.104 40.5569 115.148 40.5303C115.159 40.573 115.159 40.6171 115.148 40.6599C114.906 41.1172 114.664 41.5746 114.402 42.0243C114.347 42.0725 114.271 42.1036 114.189 42.112C113.885 41.7957 113.996 42.2187 113.875 42.2187L113.899 42.2149Z" fill="white"/>
<path d="M49.8719 39.9662C49.8502 40.1248 49.8047 40.2809 49.7363 40.4312C49.4944 40.8123 49.2185 41.1935 48.9475 41.5746C48.9475 41.6051 48.8556 41.6203 48.8072 41.6432C48.7588 41.6661 48.7394 41.5594 48.7539 41.5365C49.0766 41.0283 49.3992 40.5328 49.7218 40.05C49.7218 40.0157 49.8283 40.0119 49.8815 39.9928L49.8719 39.9662Z" fill="white"/>
<path d="M113.899 42.2149C114.044 42.2492 114.175 42.2721 114.068 42.4436C113.812 42.8591 113.584 43.2821 113.328 43.6976C113.299 43.7471 113.217 43.77 113.154 43.8081C113.141 43.7501 113.141 43.6908 113.154 43.6328C113.401 43.1602 113.652 42.6875 113.899 42.2149Z" fill="white"/>
<path d="M124.246 37.8623C124.081 38.2434 123.927 38.575 123.762 38.918C123.762 38.9447 123.665 38.9523 123.617 38.9714C123.593 38.918 123.539 38.857 123.559 38.8151C123.699 38.4797 123.849 38.1481 124.004 37.8165C124.004 37.7784 124.072 37.7517 124.106 37.7212L124.246 37.8623Z" fill="white"/>
</svg>
